<svg xmlns="http://www.w3.org/2000/svg" version="1.1" xmlns:xlink="http://www.w3.org/1999/xlink" width="500" height="500"><svg id="SvgjsSvg1001" data-name="Layer 1" xmlns="http://www.w3.org/2000/svg" viewBox="0 0 500 500"><defs><style>.cls-1{fill:#36f;}.cls-2{fill:#fff;}</style></defs><rect class="cls-1" x="-0.17" width="500" height="500"></rect><path class="cls-2" d="M176.2,358.76q-21.62,0-38.79-10.11a74,74,0,0,1-27.16-27.57q-10-17.46-10.25-39.35V155.37a13.58,13.58,0,0,1,4-10.25,14.08,14.08,0,0,1,24.25,10.25v74.82a71.31,71.31,0,0,1,23.41-18.43,70.11,70.11,0,0,1,66.37,3.32,72,72,0,0,1,25.35,27.44q9.28,17.32,9.29,39.21t-10.12,39.35a75.1,75.1,0,0,1-27.29,27.57Q198.09,358.76,176.2,358.76Zm0-24.94A47.26,47.26,0,0,0,201.42,327a49,49,0,0,0,17.6-18.7,54.55,54.55,0,0,0,6.51-26.6,53.54,53.54,0,0,0-6.51-26.6,49.7,49.7,0,0,0-17.6-18.43,50,50,0,0,0-50.29,0,48.19,48.19,0,0,0-17.6,18.43,54.45,54.45,0,0,0-6.37,26.6,55.47,55.47,0,0,0,6.37,26.6,47.45,47.45,0,0,0,42.67,25.49Z"></path><path class="cls-2" d="M387,331.61H316.49L394.74,228l0,0c1.65-2.14,2.53-5.05,2.53-8.84q0-13-13-13h-76l-5.91.09a3.23,3.23,0,0,1-3.23-3.23v-1.36a7.88,7.88,0,0,0-7.88-7.88h-10.1a7.88,7.88,0,0,0-7.88,7.88v1.36A29.08,29.08,0,0,0,302.28,232l5.91.1h52.24L282,335.76l0,0c-1.65,2.14-2.53,5-2.53,8.84q0,13,13,13H387q13,0,13-13T387,331.61Z"></path></svg><style>@media (prefers-color-scheme: light) { :root { filter: none; } }
@media (prefers-color-scheme: dark) { :root { filter: none; } }
</style></svg>