<svg id="Layer_1" data-name="Layer 1" xmlns="http://www.w3.org/2000/svg" viewBox="0 0 300 232.46"><defs><style>.cls-1{fill:#1c1c1e;}.cls-2{fill:#36f;}</style></defs><path class="cls-1" d="M54.34,104.6a27.15,27.15,0,0,1-14-3.66,26.75,26.75,0,0,1-9.83-10,29,29,0,0,1-3.72-14.25V31a4.93,4.93,0,0,1,1.46-3.71,5,5,0,0,1,3.66-1.4A4.83,4.83,0,0,1,37,31V58.05a25.79,25.79,0,0,1,8.47-6.67,24.22,24.22,0,0,1,10.89-2.46,24.17,24.17,0,0,1,13.14,3.66,26.07,26.07,0,0,1,9.18,9.93A29.6,29.6,0,0,1,82,76.71,28,28,0,0,1,78.37,91a27,27,0,0,1-24,13.64Zm0-9a17.11,17.11,0,0,0,9.13-2.46,17.68,17.68,0,0,0,6.37-6.77,19.76,19.76,0,0,0,2.36-9.63,19.41,19.41,0,0,0-2.36-9.63,17.9,17.9,0,0,0-6.37-6.67,18.08,18.08,0,0,0-18.21,0,17.53,17.53,0,0,0-6.37,6.67,19.7,19.7,0,0,0-2.3,9.63,20.06,20.06,0,0,0,2.3,9.63,17.18,17.18,0,0,0,15.45,9.23Z"/><path class="cls-1" d="M140.22,79.07a4.2,4.2,0,0,0,1.3-3.16,31.47,31.47,0,0,0-3-14A22.61,22.61,0,0,0,130,52.38a25.13,25.13,0,0,0-13.45-3.46,27.44,27.44,0,0,0-14,3.56,25.29,25.29,0,0,0-9.58,9.83,29.5,29.5,0,0,0-3.46,14.5,27.94,27.94,0,0,0,3.66,14.4A26.09,26.09,0,0,0,103.25,101a30.73,30.73,0,0,0,24.48,1.85,27.55,27.55,0,0,0,8.48-4.41,3.57,3.57,0,0,0,1.6-3.11A4.72,4.72,0,0,0,136,92.06,4.29,4.29,0,0,0,133,91a5.62,5.62,0,0,0-3.26,1.15,20,20,0,0,1-5.27,2.66A19,19,0,0,1,118.05,96a20.12,20.12,0,0,1-10.14-2.51A18,18,0,0,1,98.8,80.32h38.11A4.62,4.62,0,0,0,140.22,79.07Zm-33.46-19a18.2,18.2,0,0,1,9.78-2.51,14.64,14.64,0,0,1,14,8.58,20.08,20.08,0,0,1,1.78,6.17H98.9a20.65,20.65,0,0,1,1.69-5.37A16.16,16.16,0,0,1,106.76,60.06Z"/><path class="cls-1" d="M186,94.77H160.45l28.33-37.52h0a5.1,5.1,0,0,0,.92-3.2q0-4.73-4.72-4.72H157.44l-2.14,0a1.18,1.18,0,0,1-1.17-1.18v-.49a2.85,2.85,0,0,0-2.85-2.85h-3.66a2.86,2.86,0,0,0-2.85,2.85v.49A10.54,10.54,0,0,0,155.3,58.72l2.14,0h18.92L147.94,96.27h0a5.1,5.1,0,0,0-.92,3.2q0,4.72,4.72,4.72H186q4.71,0,4.71-4.72T186,94.77Z"/><path class="cls-1" d="M211.75,104.2a13.21,13.21,0,0,1-7.83-2.41,15.93,15.93,0,0,1-5.31-6.57,22.82,22.82,0,0,1-1.91-9.58V30.86a5,5,0,1,1,10,0V85.64a12,12,0,0,0,1.41,6.12,4.14,4.14,0,0,0,3.61,2.41h2.51a4.17,4.17,0,0,1,3.26,1.4,5.25,5.25,0,0,1,1.25,3.61,4.28,4.28,0,0,1-1.91,3.61A8,8,0,0,1,212,104.2Z"/><path class="cls-1" d="M245.66,104.6A28.42,28.42,0,0,1,231.31,101a25.79,25.79,0,0,1-9.78-9.83A28.58,28.58,0,0,1,218,76.81a28.81,28.81,0,0,1,3.56-14.5,25.79,25.79,0,0,1,9.78-9.83,30.48,30.48,0,0,1,28.59,0,25.89,25.89,0,0,1,9.79,9.83,28.91,28.91,0,0,1,3.56,14.5,28.88,28.88,0,0,1-3.52,14.4A25.46,25.46,0,0,1,260,101,28.41,28.41,0,0,1,245.66,104.6Zm0-9a17.58,17.58,0,0,0,9.23-2.41,16.87,16.87,0,0,0,6.27-6.62,20.34,20.34,0,0,0,2.25-9.73A20.63,20.63,0,0,0,261.16,67a16.8,16.8,0,0,0-6.27-6.67,18.88,18.88,0,0,0-18.46,0A17,17,0,0,0,230.11,67a20.19,20.19,0,0,0-2.31,9.78,19.91,19.91,0,0,0,2.31,9.73,17.06,17.06,0,0,0,6.32,6.62A17.53,17.53,0,0,0,245.66,95.57Z"/><path class="cls-1" d="M49.48,123.64a26.13,26.13,0,0,0-4.28-1.78,14.93,14.93,0,0,0-4.44-.73,7.45,7.45,0,0,0-4.65,1.33,4.35,4.35,0,0,0-1.73,3.63,3.94,3.94,0,0,0,1.15,2.83,10.51,10.51,0,0,0,3,2.09c1.22.59,2.51,1.15,3.87,1.67a30.81,30.81,0,0,1,3.42,1.49,14,14,0,0,1,3.08,2.11,9.11,9.11,0,0,1,2.19,3.11,11.28,11.28,0,0,1,.81,4.52,10.41,10.41,0,0,1-1.48,5.49,10.6,10.6,0,0,1-4.29,3.89,14.63,14.63,0,0,1-6.77,1.44,20.09,20.09,0,0,1-4.67-.55,24.76,24.76,0,0,1-4.28-1.46,24.5,24.5,0,0,1-3.64-2l2.51-4.33a23.82,23.82,0,0,0,2.88,1.7,17.31,17.31,0,0,0,3.37,1.27,12.49,12.49,0,0,0,3.31.48,9.8,9.8,0,0,0,3.4-.61A6.4,6.4,0,0,0,45,147.33,5,5,0,0,0,46.08,144a4.73,4.73,0,0,0-1-3,8.61,8.61,0,0,0-2.56-2.12,24.34,24.34,0,0,0-3.42-1.56c-1.19-.46-2.39-1-3.61-1.52a18.47,18.47,0,0,1-3.39-2,9.09,9.09,0,0,1-2.54-2.93,8.83,8.83,0,0,1-1-4.31,9.7,9.7,0,0,1,1.44-5.3,10,10,0,0,1,4-3.58,14.22,14.22,0,0,1,5.9-1.46,21,21,0,0,1,6.64.94,25.75,25.75,0,0,1,5,2.25Z"/><path class="cls-1" d="M67.61,116.38H92.9v5.38h-10v32.55H77.33V121.76H67.61Z"/><path class="cls-1" d="M116.25,140.78a8,8,0,0,0,1.2,4.33,9,9,0,0,0,3.19,3.09,8.74,8.74,0,0,0,4.44,1.14,9.37,9.37,0,0,0,4.65-1.14,8.66,8.66,0,0,0,3.21-3.09,8.09,8.09,0,0,0,1.18-4.33v-24.4h5.48v24.55A13.13,13.13,0,0,1,132.45,153a15.65,15.65,0,0,1-7.37,1.73,15.38,15.38,0,0,1-7.26-1.73,13.09,13.09,0,0,1-5.2-4.83,13.58,13.58,0,0,1-1.91-7.24V116.38h5.54Z"/><path class="cls-1" d="M160.14,154.31V116.38h10.55a24.07,24.07,0,0,1,9.61,1.72,17.44,17.44,0,0,1,6.4,4.55,18.16,18.16,0,0,1,3.56,6.27,22.55,22.55,0,0,1,1.12,7,18.48,18.48,0,0,1-1.52,7.62,17.67,17.67,0,0,1-4.12,5.83,18.35,18.35,0,0,1-6,3.71,20.38,20.38,0,0,1-7.21,1.28Zm5.59-5.38h5.74a17.38,17.38,0,0,0,5.67-.89,12.83,12.83,0,0,0,4.5-2.61,11.68,11.68,0,0,0,3-4.24,14.92,14.92,0,0,0,1-5.74,14.67,14.67,0,0,0-1.17-6.09,12.47,12.47,0,0,0-7.42-6.79,14.94,14.94,0,0,0-4.84-.81h-6.47Z"/><path class="cls-1" d="M210.13,116.38h5.59v37.93h-5.59Z"/><path class="cls-1" d="M234.48,135.39A18.76,18.76,0,0,1,236,128a19.94,19.94,0,0,1,4.15-6.22,19.7,19.7,0,0,1,6.17-4.26,19,19,0,0,1,15,0,20.39,20.39,0,0,1,6.22,4.26,19.84,19.84,0,0,1,4.23,6.22,18.44,18.44,0,0,1,1.52,7.41,18.76,18.76,0,0,1-1.52,7.53,19.48,19.48,0,0,1-4.2,6.16,19.74,19.74,0,0,1-6.22,4.16A19.28,19.28,0,0,1,236,143,19.41,19.41,0,0,1,234.48,135.39Zm5.75,0a13.71,13.71,0,0,0,1.07,5.46,14.06,14.06,0,0,0,2.95,4.45,13.61,13.61,0,0,0,4.36,3,13.29,13.29,0,0,0,5.36,1.07,12.9,12.9,0,0,0,5.27-1.07,13.44,13.44,0,0,0,4.32-3,13.9,13.9,0,0,0,2.89-4.45,14.05,14.05,0,0,0,1.05-5.46,13.91,13.91,0,0,0-1.07-5.45,14.68,14.68,0,0,0-2.93-4.47,13.44,13.44,0,0,0-4.33-3,13.54,13.54,0,0,0-10.69,0,13.77,13.77,0,0,0-4.33,3,13.55,13.55,0,0,0-2.9,4.49A14.56,14.56,0,0,0,240.23,135.39Z"/><polygon class="cls-2" points="26.75 200.76 29.77 200.76 29.77 192.24 37.84 192.24 37.84 189.37 29.77 189.37 29.77 183.23 38.99 183.23 38.99 180.34 26.75 180.34 26.75 200.76"/><path class="cls-2" d="M46.34,190.07a5.15,5.15,0,0,0-1.26,1.67L44.85,189H42.26v11.79h2.87v-5.2a4.22,4.22,0,0,1,.56-2.11,4.3,4.3,0,0,1,1.56-1.58,4.11,4.11,0,0,1,2.35-.51l.14-2.87a4.23,4.23,0,0,0-1.59.41A7.24,7.24,0,0,0,46.34,190.07Z"/><path class="cls-2" d="M62.06,190.71a5.92,5.92,0,0,0-1.58-1.53,5,5,0,0,0-2.77-.71,6,6,0,0,0-3,.77,5.91,5.91,0,0,0-2.2,2.21,6.78,6.78,0,0,0-.83,3.43,6.85,6.85,0,0,0,.79,3.41,5.05,5.05,0,0,0,2.14,2.06,6.51,6.51,0,0,0,3,.69,5.23,5.23,0,0,0,1.84-.29A5.54,5.54,0,0,0,60.9,200a6.66,6.66,0,0,0,1-.85l.17-.21v1.82h2.9V189H62.27Zm-.72,6.68a3.41,3.41,0,0,1-1.24,1,3.85,3.85,0,0,1-1.66.34,3.59,3.59,0,0,1-1.89-.52,3.94,3.94,0,0,1-1.39-1.42,3.9,3.9,0,0,1-.52-2,4,4,0,0,1,.51-2,3.65,3.65,0,0,1,3.2-1.85,4,4,0,0,1,2.93,1.25,3.3,3.3,0,0,1,.76,1.37v2.44A3.65,3.65,0,0,1,61.34,197.39Z"/><path class="cls-2" d="M84.58,188.49a4.67,4.67,0,0,0-2.49.72,5.38,5.38,0,0,0-1.75,1.8,2.67,2.67,0,0,0-.63-1.33,3.37,3.37,0,0,0-1.28-.88,4.76,4.76,0,0,0-1.73-.31,5,5,0,0,0-2.73.75,5.16,5.16,0,0,0-1.78,1.95L72,189H69.38v11.79h2.9v-5.43a5.48,5.48,0,0,1,.41-2.09,3.9,3.9,0,0,1,1.17-1.62,2.69,2.69,0,0,1,1.77-.62,1.64,1.64,0,0,1,1.38.65,2.76,2.76,0,0,1,.42,1.46v7.65h2.9v-5.43a5.73,5.73,0,0,1,.45-2.11,4,4,0,0,1,1.2-1.6,2.72,2.72,0,0,1,1.78-.62,1.58,1.58,0,0,1,1.34.65,2.85,2.85,0,0,1,.41,1.46v7.65h2.87V192a3.44,3.44,0,0,0-1.06-2.53A3.78,3.78,0,0,0,84.58,188.49Z"/><rect class="cls-2" x="92.82" y="188.97" width="2.9" height="11.79"/><path class="cls-2" d="M94.34,183.18a1.76,1.76,0,0,0-1.15.45,1.39,1.39,0,0,0-.53,1.12,1.35,1.35,0,0,0,.53,1.11,1.8,1.8,0,0,0,1.15.44,1.75,1.75,0,0,0,1.16-.44,1.39,1.39,0,0,0,.5-1.11,1.42,1.42,0,0,0-.5-1.12A1.71,1.71,0,0,0,94.34,183.18Z"/><path class="cls-2" d="M107.62,188.49a5.35,5.35,0,0,0-2.92.78,4.66,4.66,0,0,0-1.76,1.93l-.21-2.23h-2.59v11.79H103v-5.37a5.46,5.46,0,0,1,.45-2.28,3.8,3.8,0,0,1,1.24-1.56,2.83,2.83,0,0,1,1.74-.58,2.07,2.07,0,0,1,1.58.61,2.29,2.29,0,0,1,.53,1.47v7.71h2.9V192a3.4,3.4,0,0,0-1.11-2.56A3.92,3.92,0,0,0,107.62,188.49Z"/><path class="cls-2" d="M125.63,190.49a4.67,4.67,0,0,0-1.77-1.42,6.37,6.37,0,0,0-2.81-.6,5.74,5.74,0,0,0-3,.83,6.35,6.35,0,0,0-2.27,2.25,6.24,6.24,0,0,0-.86,3.28,6.18,6.18,0,0,0,.82,3.18,6.11,6.11,0,0,0,2.18,2.22,5.72,5.72,0,0,0,3,.81,5.91,5.91,0,0,0,3.18-.8,4.39,4.39,0,0,0,1.56-1.56l0,2.11a3.12,3.12,0,0,1-.47,1.75,3.3,3.3,0,0,1-1.37,1.14,5.08,5.08,0,0,1-2.12.4,4.54,4.54,0,0,1-2.17-.49,8.23,8.23,0,0,1-1.8-1.31l-1.72,2c.49.41,1,.8,1.54,1.17a6.88,6.88,0,0,0,1.81.86,8.45,8.45,0,0,0,2.39.31,7.84,7.84,0,0,0,3.61-.78,6,6,0,0,0,2.37-2.08,5.17,5.17,0,0,0,.86-2.94V189h-2.67Zm-.8,6.88a3.86,3.86,0,0,1-1.34,1,4.33,4.33,0,0,1-1.77.35,3.8,3.8,0,0,1-2-.52,3.72,3.72,0,0,1-1.39-1.42,4.24,4.24,0,0,1,0-4,3.56,3.56,0,0,1,1.39-1.36,4,4,0,0,1,2-.49,4.34,4.34,0,0,1,1.75.34,4.23,4.23,0,0,1,1.35.91,3.52,3.52,0,0,1,.81,1.39V196A3.62,3.62,0,0,1,124.83,197.37Z"/><path class="cls-2" d="M151.93,190.14h0a5.14,5.14,0,0,0,2-1.76,5.21,5.21,0,0,0,.77-2.9,4.43,4.43,0,0,0-1.78-3.88,8.35,8.35,0,0,0-4.89-1.27h-5.43v20.43h6.22a9.79,9.79,0,0,0,2.55-.32,6.76,6.76,0,0,0,2.19-1,4.93,4.93,0,0,0,1.55-1.8,5.65,5.65,0,0,0,.58-2.66,4.46,4.46,0,0,0-1-2.92A6.71,6.71,0,0,0,151.93,190.14Zm-6.37-6.91h2.56a4.13,4.13,0,0,1,2.49.69,2.58,2.58,0,0,1,.94,2.21,3.32,3.32,0,0,1-.73,2.14,2.81,2.81,0,0,1-2.31.9h-2.95ZM152,196.67a3,3,0,0,1-1.4,1,5.69,5.69,0,0,1-2,.33h-3.06v-5.91h2.86a7.08,7.08,0,0,1,2,.27,3.21,3.21,0,0,1,1.55.9,2.44,2.44,0,0,1,.6,1.76A2.6,2.6,0,0,1,152,196.67Z"/><path class="cls-2" d="M168.43,189.31a6.9,6.9,0,0,0-3.4-.82,7,7,0,0,0-3.41.82,6,6,0,0,0-2.33,2.24,6.07,6.07,0,0,0-.85,3.19,6.36,6.36,0,0,0,.86,3.36,5.69,5.69,0,0,0,2.33,2.18A7.24,7.24,0,0,0,165,201a6.86,6.86,0,0,0,3.43-.82A5.89,5.89,0,0,0,170.7,198a6.53,6.53,0,0,0,.8-3.21,6.43,6.43,0,0,0-.8-3.19A5.75,5.75,0,0,0,168.43,189.31Zm-.32,7.44a3.71,3.71,0,0,1-1.28,1.41,3.39,3.39,0,0,1-1.86.52,3.31,3.31,0,0,1-1.83-.52,3.73,3.73,0,0,1-1.29-1.41,4.08,4.08,0,0,1-.48-2,4.19,4.19,0,0,1,.46-2,3.81,3.81,0,0,1,1.28-1.42,3.53,3.53,0,0,1,3.72,0,3.86,3.86,0,0,1,1.28,1.41,4.12,4.12,0,0,1,.46,2A4.19,4.19,0,0,1,168.11,196.75Z"/><rect class="cls-2" x="174.93" y="178.9" width="2.9" height="21.86"/><path class="cls-2" d="M191.79,190.46A4.45,4.45,0,0,0,190,189a6.12,6.12,0,0,0-2.57-.55,6.62,6.62,0,0,0-3.14.74,5.55,5.55,0,0,0-2.21,2.14,6.58,6.58,0,0,0-.81,3.36,7.13,7.13,0,0,0,.75,3.35,5.51,5.51,0,0,0,2.09,2.21,5.73,5.73,0,0,0,3,.77,6.13,6.13,0,0,0,2.87-.66,7.21,7.21,0,0,0,1.83-1.36v1.74h2.9V178.9h-2.87Zm-2.09,7.8a4.29,4.29,0,0,1-1.74.34,3.65,3.65,0,0,1-1.88-.52,3.94,3.94,0,0,1,0-6.81,3.74,3.74,0,0,1,1.9-.5,4.43,4.43,0,0,1,1.72.34,3.87,3.87,0,0,1,1.33.94,3.19,3.19,0,0,1,.75,1.4v2.36a3.73,3.73,0,0,1-.76,1.48A3.67,3.67,0,0,1,189.7,198.26Z"/><rect class="cls-2" x="208.7" y="180.33" width="3.01" height="20.43"/><path class="cls-2" d="M226.34,190.46a4.35,4.35,0,0,0-1.81-1.44,6.2,6.2,0,0,0-2.58-.55,6.64,6.64,0,0,0-3.14.74,5.59,5.59,0,0,0-2.2,2.14,6.49,6.49,0,0,0-.82,3.36,7,7,0,0,0,.76,3.35,5.48,5.48,0,0,0,2.08,2.21,5.76,5.76,0,0,0,3,.77,6.1,6.1,0,0,0,2.87-.66,7.21,7.21,0,0,0,1.83-1.36v1.74h2.9V178.9h-2.87Zm-2.08,7.8a4.37,4.37,0,0,1-1.75.34,3.67,3.67,0,0,1-1.88-.52,3.82,3.82,0,0,1-1.39-1.43,4.14,4.14,0,0,1,0-4,3.72,3.72,0,0,1,1.37-1.36,3.77,3.77,0,0,1,1.9-.5,4.4,4.4,0,0,1,1.72.34,4,4,0,0,1,1.34.94,3.27,3.27,0,0,1,.74,1.4v2.36a3.73,3.73,0,0,1-.76,1.48A3.63,3.63,0,0,1,224.26,198.26Z"/><path class="cls-2" d="M243.18,189.87a5.7,5.7,0,0,0-3.92-1.38,6.74,6.74,0,0,0-3.34.85,6.57,6.57,0,0,0-2.39,2.26,5.9,5.9,0,0,0-.89,3.17,6.65,6.65,0,0,0,.79,3.25,5.59,5.59,0,0,0,2.25,2.22,7.18,7.18,0,0,0,3.52.8,6.68,6.68,0,0,0,2.12-.35,8.68,8.68,0,0,0,2-.94L242,197.61a6.81,6.81,0,0,1-1.3.7,3.79,3.79,0,0,1-1.45.29,3.6,3.6,0,0,1-3.14-1.7l9.16-3.17A7,7,0,0,0,243.18,189.87ZM236,192.62a3.51,3.51,0,0,1,1.27-1.35,3.37,3.37,0,0,1,1.81-.5,2.83,2.83,0,0,1,2,.67,3.92,3.92,0,0,1,1,1.4l-6.48,2.33a4.69,4.69,0,0,1-.06-.54A4.14,4.14,0,0,1,236,192.62Z"/><path class="cls-2" d="M257.82,190.71a5.92,5.92,0,0,0-1.58-1.53,5,5,0,0,0-2.77-.71,6,6,0,0,0-3,.77,5.91,5.91,0,0,0-2.2,2.21,6.78,6.78,0,0,0-.83,3.43,6.85,6.85,0,0,0,.79,3.41,5.05,5.05,0,0,0,2.14,2.06,6.51,6.51,0,0,0,3,.69,5.23,5.23,0,0,0,1.84-.29,5.54,5.54,0,0,0,1.41-.75,6.66,6.66,0,0,0,1-.85l.17-.21v1.82h2.9V189H258Zm-.72,6.68a3.41,3.41,0,0,1-1.24,1,3.85,3.85,0,0,1-1.66.34,3.59,3.59,0,0,1-1.89-.52,3.94,3.94,0,0,1-1.39-1.42,3.9,3.9,0,0,1-.52-2,4,4,0,0,1,.51-2,3.65,3.65,0,0,1,3.2-1.85,4,4,0,0,1,2.93,1.25,3.3,3.3,0,0,1,.76,1.37v2.44A3.65,3.65,0,0,1,257.1,197.39Z"/><path class="cls-2" d="M272.85,195.47a3.46,3.46,0,0,0-1.07-1.05,5.86,5.86,0,0,0-1.54-.69l-1.27-.44a3.22,3.22,0,0,1-1.06-.56,1.08,1.08,0,0,1-.38-.92,1,1,0,0,1,.26-.68,1.53,1.53,0,0,1,.67-.45,2.52,2.52,0,0,1,.93-.16,4,4,0,0,1,1.25.3,3.3,3.3,0,0,1,1.2.77l1.12-1.75a5.16,5.16,0,0,0-1.82-1,7.87,7.87,0,0,0-2.28-.3,4.77,4.77,0,0,0-2.37.54,3.59,3.59,0,0,0-1.42,1.36,3.53,3.53,0,0,0-.46,1.76,3.12,3.12,0,0,0,.76,2.1,4.77,4.77,0,0,0,2.25,1.36q.7.2,1.32.42a3.33,3.33,0,0,1,1,.56,1.16,1.16,0,0,1,.4.93,1.21,1.21,0,0,1-.28.82,1.5,1.5,0,0,1-.73.43,3.6,3.6,0,0,1-1,.13,3.66,3.66,0,0,1-1.48-.35,6.07,6.07,0,0,1-1.53-1.05l-1.24,1.63a5,5,0,0,0,2,1.36,6.93,6.93,0,0,0,2.5.47,5.62,5.62,0,0,0,2.62-.55,3.68,3.68,0,0,0,1.55-1.47,3.94,3.94,0,0,0,.51-1.95A2.85,2.85,0,0,0,272.85,195.47Z"/><path class="cls-2" d="M298.33,156a1.67,1.67,0,0,1-1.67-1.67V35.11A31.82,31.82,0,0,0,264.89,3.34H26.75a1.67,1.67,0,0,1,0-3.34H264.89A35.15,35.15,0,0,1,300,35.11v119.2A1.67,1.67,0,0,1,298.33,156Z"/><path class="cls-2" d="M273.25,232.46H35.11A35.15,35.15,0,0,1,0,197.35V116.23a1.67,1.67,0,0,1,3.34,0v81.12a31.81,31.81,0,0,0,31.77,31.77H273.25a1.67,1.67,0,1,1,0,3.34Z"/></svg>